<svg width="720" height="456" viewBox="0 0 720 456" fill="none" xmlns="http://www.w3.org/2000/svg">
<g clip-path="url(#clip0_1748_3104)">
<path d="M602.462 35.65H0.671875C1.52185 30.83 3.18182 26.27 5.50183 22.14C12.9119 8.94 27.0419 0 43.2319 0H559.902C576.082 0 590.222 8.94 597.622 22.14C599.942 26.27 601.612 30.83 602.462 35.65Z" fill="#F2F2F2"/>
<path d="M719.529 453.7C719.529 454.36 718.999 454.89 718.339 454.89H471.049C470.389 454.89 469.859 454.36 469.859 453.7C469.859 453.38 469.979 453.1 470.179 452.89H559.899C561.809 452.89 563.679 452.76 565.519 452.51H718.339C718.999 452.51 719.529 453.04 719.529 453.7Z" fill="#3F3D56"/>
<path d="M442.219 211.141H160.905C158.291 211.141 156.164 208.449 156.164 205.141C156.164 201.832 158.291 199.141 160.905 199.141H442.219C444.834 199.141 446.961 201.832 446.961 205.141C446.961 208.449 444.834 211.141 442.219 211.141Z" fill="#E6E6E6"/>
<path d="M602.46 35.65C601.61 30.83 599.94 26.27 597.62 22.14C590.22 8.94 576.08 0 559.9 0H43.23C27.04 0 12.91 8.94 5.5 22.14C3.17999 26.27 1.52002 30.83 0.67004 35.65C0.23004 38.11 0 40.64 0 43.23V411.66C0 435.5 19.39 454.89 43.23 454.89H559.9C564.84 454.89 569.6 454.05 574.03 452.51C590.95 446.65 603.13 430.55 603.13 411.66V43.23C603.13 40.65 602.9 38.11 602.46 35.65ZM601.13 411.66C601.13 432.52 585.63 449.77 565.52 452.51C563.68 452.76 561.81 452.89 559.9 452.89H104.64C47.95 452.89 2 406.93 2 350.24V43.23C2 40.64 2.23999 38.11 2.70001 35.65C3.60003 30.79 5.35003 26.24 7.79999 22.14C14.99 10.08 28.17 2 43.23 2H559.9C574.96 2 588.14 10.08 595.33 22.14C597.78 26.24 599.53 30.79 600.43 35.65C600.89 38.11 601.13 40.64 601.13 43.23V411.66Z" fill="#3F3D56"/>
<path d="M575.927 216.081L572.543 203.673L587.771 198.033L589.462 209.313L575.927 216.081Z" fill="#FFB6B6"/>
<path opacity="0.1" d="M575.927 216.081L572.543 203.673L581.511 199.891L578.725 214.518L575.927 216.081Z" fill="black"/>
<path d="M531.348 322.417C528.44 320.686 528.286 315.578 531.006 311.008C532.196 309.007 533.74 307.441 535.343 306.458L536.94 303.849L557.142 267.633C557.142 267.633 565.985 233.476 569.585 229.346C573.186 225.217 578.391 226.19 578.391 226.19L583.008 230.291L566.529 278.668L546.193 307.306L543.468 311.292C543.369 313.17 542.729 315.274 541.538 317.274C538.819 321.845 534.257 324.147 531.348 322.417Z" fill="#FFB6B6"/>
<path d="M575.091 212.535C575.091 212.535 581.516 212.287 585.57 217.278C589.625 222.27 568.385 278.527 568.385 278.527L551.086 277.915L575.091 212.535Z" fill="#6C63FF"/>
<path d="M576.772 205.646C585.493 205.646 592.564 198.576 592.564 189.854C592.564 181.133 585.493 174.062 576.772 174.062C568.051 174.062 560.98 181.133 560.98 189.854C560.98 198.576 568.051 205.646 576.772 205.646Z" fill="#FFB6B6"/>
<path d="M539.832 419.115L529.116 445.622L522.912 439.418L520.656 427.575L529.68 416.295L539.832 419.115Z" fill="#FFB6B6"/>
<path d="M640.221 409.527L650.937 421.935L645.861 432.087L634.581 430.395L628.941 414.603L640.221 409.527Z" fill="#FFB6B6"/>
<path d="M568.879 261.48L567.469 284.322L602.436 278.118L600.18 264.018L568.879 261.48Z" fill="#FFB6B6"/>
<path d="M567.186 284.605L602.435 273.043C602.435 273.043 615.406 298.986 601.307 315.342C587.207 331.697 540.396 424.755 540.396 424.755L526.297 417.987L546.6 358.768L569.16 304.062L567.186 284.605Z" fill="#2F2E41"/>
<path d="M601.305 305.754L614.841 364.972L643.04 410.655L628.376 419.115L588.897 364.972L575.926 323.237L601.305 305.754Z" fill="#2F2E41"/>
<path d="M515.581 425.318H505.813C505.813 425.318 494.416 420.806 491.745 425.318C489.073 429.83 503.663 442.626 503.663 442.626C503.663 442.626 524.04 454.081 526.86 453.517C529.68 452.953 530.808 446.185 530.808 446.185L534.192 438.289L529.116 439.981C529.116 439.981 522.348 436.033 524.04 429.266L515.581 425.318Z" fill="#2F2E41"/>
<path d="M648.681 423.626V417.986L655.238 423.626C655.238 423.626 666.165 427.574 657.705 436.034C649.245 444.494 638.529 453.517 638.529 453.517C638.529 453.517 621.61 458.029 620.482 452.953C619.354 447.878 620.482 445.824 620.482 445.824L626.686 442.802L632.325 428.138L641.349 429.266L648.681 423.626Z" fill="#2F2E41"/>
<path d="M581.568 192.957L576.492 192.393L567.186 183.087C567.186 183.087 558.727 187.599 558.727 184.215C558.727 168.424 568.314 168.988 576.21 167.86C584.106 166.732 583.26 166.45 585.798 170.679C586.958 172.614 591.156 173.781 591.156 173.781C591.156 173.781 599.051 163.066 602.999 176.037C606.947 189.009 601.871 229.052 605.819 232.436C609.767 235.82 589.609 239.198 591.792 225.947C593.976 212.696 597.923 192.393 595.668 187.881C593.412 183.369 592.848 184.497 592.848 184.497C595.643 183.356 597.47 203.461 586.929 204.446L586.644 194.649C586.644 194.649 584.952 189.573 581.568 192.957Z" fill="#2F2E41"/>
<path d="M574.519 212.414L591.438 205.646L613.997 273.325L567.582 271.634L563.402 251.434C563.402 251.434 559.322 240.921 562.706 234.717C566.09 228.513 574.519 212.414 574.519 212.414Z" fill="#6C63FF"/>
<path d="M618.547 325.784C615.175 326.074 612.072 322.013 611.617 316.714C611.418 314.394 611.759 312.222 612.488 310.489L612.265 307.438L607.565 266.235C607.565 266.235 598.817 232.532 599.335 227.078C599.852 221.624 600.669 220.176 600.669 220.176L606.812 220.816L621.626 269.729L621.799 304.853L621.908 309.68C622.922 311.263 623.629 313.346 623.828 315.665C624.283 320.964 621.919 325.494 618.547 325.784Z" fill="#FFB6B6"/>
<path d="M590.027 211.004C590.027 211.004 595.103 207.056 601.307 208.748C607.511 210.44 623.051 268.53 623.051 268.53L608.639 278.118L590.027 211.004Z" fill="#6C63FF"/>
<path d="M296.207 308.641H228.551C224.422 308.641 221.062 305.281 221.062 301.152V294.386C221.062 290.257 224.422 286.898 228.551 286.898H296.207C300.335 286.898 303.695 290.257 303.695 294.386V301.152C303.695 305.281 300.335 308.641 296.207 308.641Z" fill="#6C63FF"/>
<path d="M556.207 87.5117H488.551C484.422 87.5117 481.062 84.1523 481.062 80.0234V73.2568C481.062 69.1279 484.422 65.7695 488.551 65.7695H556.207C560.335 65.7695 563.695 69.1279 563.695 73.2568V80.0234C563.695 84.1523 560.335 87.5117 556.207 87.5117Z" fill="#6C63FF"/>
<path d="M396.574 309.141H328.918C324.513 309.141 320.93 305.557 320.93 301.152V294.386C320.93 289.981 324.513 286.398 328.918 286.398H396.574C400.979 286.398 404.562 289.981 404.562 294.386V301.152C404.562 305.557 400.979 309.141 396.574 309.141ZM328.918 288.398C325.616 288.398 322.93 291.084 322.93 294.386V301.152C322.93 304.454 325.616 307.141 328.918 307.141H396.574C399.875 307.141 402.562 304.454 402.562 301.152V294.386C402.562 291.084 399.875 288.398 396.574 288.398H328.918Z" fill="#6C63FF"/>
<path d="M479.562 180.141H123.562C120.254 180.141 117.562 177.449 117.562 174.141C117.562 170.832 120.254 168.141 123.562 168.141H479.562C482.871 168.141 485.562 170.832 485.562 174.141C485.562 177.449 482.871 180.141 479.562 180.141Z" fill="#E6E6E6"/>
<path d="M100.891 82.6406H55.8906C52.582 82.6406 49.8906 79.9492 49.8906 76.6406C49.8906 73.332 52.582 70.6406 55.8906 70.6406H100.891C104.199 70.6406 106.891 73.332 106.891 76.6406C106.891 79.9492 104.199 82.6406 100.891 82.6406Z" fill="#E6E6E6"/>
<path d="M369.891 82.6406H324.891C321.582 82.6406 318.891 79.9492 318.891 76.6406C318.891 73.332 321.582 70.6406 324.891 70.6406H369.891C373.199 70.6406 375.891 73.332 375.891 76.6406C375.891 79.9492 373.199 82.6406 369.891 82.6406Z" fill="#E6E6E6"/>
<path d="M454.891 82.6406H409.891C406.582 82.6406 403.891 79.9492 403.891 76.6406C403.891 73.332 406.582 70.6406 409.891 70.6406H454.891C458.199 70.6406 460.891 73.332 460.891 76.6406C460.891 79.9492 458.199 82.6406 454.891 82.6406Z" fill="#E6E6E6"/>
<path d="M400.562 242.141H202.562C199.254 242.141 196.562 239.449 196.562 236.141C196.562 232.832 199.254 230.141 202.562 230.141H400.562C403.871 230.141 406.562 232.832 406.562 236.141C406.562 239.449 403.871 242.141 400.562 242.141Z" fill="#E6E6E6"/>
<path d="M409.188 373.396H193.933C191.932 373.396 190.305 371.769 190.305 369.769C190.305 367.768 191.932 366.141 193.933 366.141H409.188C411.189 366.141 412.816 367.768 412.816 369.769C412.816 371.769 411.189 373.396 409.188 373.396Z" fill="#E6E6E6"/>
<path d="M411.192 21.3964H195.937C193.936 21.3964 192.309 19.7691 192.309 17.7685C192.309 15.768 193.936 14.1406 195.937 14.1406H411.192C413.193 14.1406 414.82 15.768 414.82 17.7685C414.82 19.7691 413.193 21.3964 411.192 21.3964Z" fill="white"/>
</g>
<defs>
<clipPath id="clip0_1748_3104">
<rect width="719.53" height="455.365" fill="white"/>
</clipPath>
</defs>
</svg>
