<svg width="16" height="16" viewBox="0 0 16 16" fill="none" xmlns="http://www.w3.org/2000/svg">
<path d="M1.84615 15.7796H0V10.7561H10.1538C12.36 10.7561 14.1538 8.92563 14.1538 6.67445C14.1538 4.42327 12.36 2.59281 10.1538 2.59281H1.84615V7.61636H9.84615C10.3538 7.61636 10.7692 7.1925 10.7692 6.67445C10.7692 6.15639 10.3538 5.73253 9.84615 5.73253H3.07692V3.8487H9.84615C11.3723 3.8487 12.6154 5.11715 12.6154 6.67445C12.6154 8.23175 11.3723 9.50019 9.84615 9.50019H0V0.708984H10.1538C13.3785 0.708984 16 3.38402 16 6.67445C16 9.96487 13.3785 12.6399 10.1538 12.6399H1.84615V15.7796Z" fill="#EE1C25"/>
</svg>
