<svg width="36" height="36" viewBox="0 0 36 36" fill="none" xmlns="http://www.w3.org/2000/svg">
<path d="M30.375 9.5625C30.375 12.9798 24.8345 15.75 18 15.75C11.1655 15.75 5.625 12.9798 5.625 9.5625M30.375 9.5625C30.375 6.14524 24.8345 3.375 18 3.375C11.1655 3.375 5.625 6.14524 5.625 9.5625M30.375 9.5625V26.4375C30.375 29.8548 24.8345 32.625 18 32.625C11.1655 32.625 5.625 29.8548 5.625 26.4375V9.5625M30.375 9.5625V15.1875M5.625 9.5625V15.1875M30.375 15.1875V20.8125C30.375 24.2298 24.8345 27 18 27C11.1655 27 5.625 24.2298 5.625 20.8125V15.1875M30.375 15.1875C30.375 18.6048 24.8345 21.375 18 21.375C11.1655 21.375 5.625 18.6048 5.625 15.1875" stroke="black" stroke-width="2.25" stroke-linecap="round" stroke-linejoin="round"/>
</svg>
