<svg width="36" height="36" viewBox="0 0 36 36" fill="none" xmlns="http://www.w3.org/2000/svg">
<path d="M13.5 25.875V27.386C13.5 28.5795 13.0259 29.7241 12.182 30.568L11.25 31.5H24.75L23.818 30.568C22.9741 29.7241 22.5 28.5795 22.5 27.386V25.875M31.5 7.875V22.5C31.5 24.364 29.989 25.875 28.125 25.875H7.875C6.01104 25.875 4.5 24.364 4.5 22.5V7.875M31.5 7.875C31.5 6.01104 29.989 4.5 28.125 4.5H7.875C6.01104 4.5 4.5 6.01104 4.5 7.875M31.5 7.875V18C31.5 19.864 29.989 21.375 28.125 21.375H7.875C6.01104 21.375 4.5 19.864 4.5 18V7.875" stroke="black" stroke-width="2.25" stroke-linecap="round" stroke-linejoin="round"/>
</svg>
