<svg width="32" height="32" viewBox="0 0 32 32" fill="none" xmlns="http://www.w3.org/2000/svg">
<path d="M8 9.17071V8C8 6.34315 9.34315 5 11 5H21C22.6569 5 24 6.34315 24 8V9.17071M8 9.17071C8.31278 9.06015 8.64936 9 9 9H23C23.3506 9 23.6872 9.06015 24 9.17071M8 9.17071C6.83481 9.58254 6 10.6938 6 12V13.1707M24 9.17071C25.1652 9.58254 26 10.6938 26 12V13.1707M26 13.1707C25.6872 13.0602 25.3506 13 25 13H7C6.64936 13 6.31278 13.0602 6 13.1707M26 13.1707C27.1652 13.5825 28 14.6938 28 16V24C28 25.6569 26.6569 27 25 27H7C5.34315 27 4 25.6569 4 24V16C4 14.6938 4.83481 13.5825 6 13.1707" stroke="black" stroke-width="2" stroke-linecap="round" stroke-linejoin="round"/>
</svg>
