<svg width="36" height="36" viewBox="0 0 36 36" fill="none" xmlns="http://www.w3.org/2000/svg">
<path d="M32.625 25.875V25.5334C32.625 25.0129 32.5648 24.4941 32.4456 23.9874L29.0433 9.52799C28.5053 7.24118 26.4647 5.625 24.1154 5.625H11.8846C9.53531 5.625 7.49472 7.24118 6.95665 9.52799L3.55443 23.9874C3.43521 24.4941 3.375 25.0129 3.375 25.5334V25.875M32.625 25.875C32.625 28.3603 30.6103 30.375 28.125 30.375H7.875C5.38972 30.375 3.375 28.3603 3.375 25.875M32.625 25.875C32.625 23.3897 30.6103 21.375 28.125 21.375H7.875C5.38972 21.375 3.375 23.3897 3.375 25.875M28.125 25.875H28.1363V25.8863H28.125V25.875ZM23.625 25.875H23.6363V25.8863H23.625V25.875Z" stroke="black" stroke-width="2.25" stroke-linecap="round" stroke-linejoin="round"/>
</svg>
