<svg width="36" height="36" viewBox="0 0 36 36" fill="none" xmlns="http://www.w3.org/2000/svg">
<path d="M29.25 21.375V17.4375C29.25 14.6416 26.9834 12.375 24.1875 12.375H21.9375C21.0055 12.375 20.25 11.6195 20.25 10.6875V8.4375C20.25 5.64156 17.9834 3.375 15.1875 3.375H12.375M12.375 22.5H23.625M12.375 27H18M15.75 3.375H8.4375C7.50552 3.375 6.75 4.13052 6.75 5.0625V30.9375C6.75 31.8695 7.50552 32.625 8.4375 32.625H27.5625C28.4945 32.625 29.25 31.8695 29.25 30.9375V16.875C29.25 9.41916 23.2058 3.375 15.75 3.375Z" stroke="black" stroke-width="2.25" stroke-linecap="round" stroke-linejoin="round"/>
</svg>
