<svg width="36" height="36" viewBox="0 0 36 36" fill="none" xmlns="http://www.w3.org/2000/svg">
<path d="M22.5 13.5H28.125M22.5 18H28.125M22.5 22.5H28.125M6.75 29.25H29.25C31.114 29.25 32.625 27.739 32.625 25.875V10.125C32.625 8.26104 31.114 6.75 29.25 6.75H6.75C4.88604 6.75 3.375 8.26104 3.375 10.125V25.875C3.375 27.739 4.88604 29.25 6.75 29.25ZM15.75 14.0625C15.75 15.6158 14.4908 16.875 12.9375 16.875C11.3842 16.875 10.125 15.6158 10.125 14.0625C10.125 12.5092 11.3842 11.25 12.9375 11.25C14.4908 11.25 15.75 12.5092 15.75 14.0625ZM17.6908 23.567C16.2734 24.3221 14.6553 24.75 12.9373 24.75C11.2192 24.75 9.60111 24.3221 8.18372 23.567C8.89479 21.6311 10.7547 20.25 12.9373 20.25C15.1198 20.25 16.9797 21.6311 17.6908 23.567Z" stroke="black" stroke-width="2.25" stroke-linecap="round" stroke-linejoin="round"/>
</svg>
