<svg width="150" height="26" viewBox="0 0 150 26" fill="none" xmlns="http://www.w3.org/2000/svg">
<g clip-path="url(#clip0_1314_6587)">
<path d="M22.5 19.6327H10.375C5.205 19.6327 1 15.3418 1 10.0663C1 4.79082 5.205 0.5 10.375 0.5H22.5V3.56122H10.375C6.86 3.56122 4 6.47959 4 10.0663C4 13.6531 6.86 16.5714 10.375 16.5714H22.5V19.6327Z" fill="#1F1F1F"/>
<path d="M43 19.6315H30.73C28.125 19.6315 26 17.4682 26 14.8049V0.753906H29V14.8049C29 15.7794 29.775 16.5702 30.73 16.5702H43V19.6315Z" fill="#1F1F1F"/>
<path d="M48 5.85547H45V19.631H48V5.85547Z" fill="#1F1F1F"/>
<path d="M48 0.753906H45V3.81513H48V0.753906Z" fill="#1F1F1F"/>
<path d="M54 25.2437H51V17.0804H67.5C71.085 17.0804 74 14.1059 74 10.4478C74 6.78962 71.085 3.81513 67.5 3.81513H54V11.9784H67C67.825 11.9784 68.5 11.2896 68.5 10.4478C68.5 9.60595 67.825 8.91717 67 8.91717H56V5.85595H67C69.48 5.85595 71.5 7.91717 71.5 10.4478C71.5 12.9784 69.48 15.0396 67 15.0396H51V0.753906H67.5C72.74 0.753906 77 5.10085 77 10.4478C77 15.7947 72.74 20.1417 67.5 20.1417H54V25.2437Z" fill="#EE1C25"/>
<path d="M93.04 19.6315H79.5V0.753906H93.04C96.88 0.753906 100 3.94268 100 7.85595V12.5243C100 16.4427 96.875 19.6315 93.04 19.6315ZM82.5 16.5702H93.04C95.225 16.5702 97 14.759 97 12.5294V7.86105C97 5.63146 95.225 3.82023 93.04 3.82023H82.5V16.5702Z" fill="#1F1F1F"/>
<path d="M134 0.753906H117.5V3.81513H124.5V19.6315H127.5V3.81513H134V0.753906Z" fill="#1F1F1F"/>
<path d="M116.039 19.2794H118.959L114.689 0.753906H109.999H105.309L101.039 19.2794H103.959L105.269 14.2896H114.724L116.039 19.2794ZM105.979 11.2284L107.689 3.81513H109.999H112.309L114.019 11.2284H105.979Z" fill="#1F1F1F"/>
<path d="M146.539 19.2794H149.459L145.189 0.753906H140.499H135.809L131.539 19.2794H134.459L135.769 14.2896H145.224L146.539 19.2794ZM136.479 11.2284L138.189 3.81513H140.499H142.809L144.519 11.2284H136.479Z" fill="#1F1F1F"/>
</g>
<defs>
<clipPath id="clip0_1314_6587">
<rect width="150" height="25" fill="white" transform="translate(0 0.5)"/>
</clipPath>
</defs>
</svg>
