<svg width="128" height="128" viewBox="0 0 128 128" fill="none" xmlns="http://www.w3.org/2000/svg">
<path d="M47.709 40.2242C50.5006 31.661 51.8964 27.3793 54.6347 24.6501C57.0434 22.2494 60.1528 20.6703 63.5173 20.1392C67.3422 19.5354 71.6381 20.9266 80.2298 23.709L87.7085 26.1309C96.3002 28.9132 100.596 30.3044 103.334 33.0337C105.743 35.4344 107.327 38.5335 107.86 41.8868C108.466 45.699 107.07 49.9806 104.279 58.5438L100.291 70.7758C97.4994 79.3391 96.1036 83.6207 93.3653 86.3499C90.9566 88.7506 87.8472 90.3297 84.4827 90.8608C80.6578 91.4646 76.3619 90.0734 67.7702 87.291L60.2915 84.8691C51.6998 82.0868 47.4039 80.6956 44.6656 77.9663C42.2569 75.5656 40.6726 72.4665 40.1397 69.1132C39.5339 65.301 40.9297 61.0194 43.7213 52.4562L47.709 40.2242Z" fill="url(#paint0_linear_1314_6741)"/>
<g filter="url(#filter0_b_1314_6741)">
<rect x="20" y="40" width="62" height="68" rx="16" fill="#39C2FD" fill-opacity="0.32"/>
<rect x="20.25" y="40.25" width="61.5" height="67.5" rx="15.75" stroke="url(#paint1_linear_1314_6741)" stroke-width="0.5"/>
</g>
<g filter="url(#filter1_bdii_1314_6741)">
<path fill-rule="evenodd" clip-rule="evenodd" d="M36 54C34.8954 54 34 54.8954 34 56C34 57.1046 34.8954 58 36 58H66C67.1046 58 68 57.1046 68 56C68 54.8954 67.1046 54 66 54H36ZM34 66C34 64.8954 34.8954 64 36 64H66C67.1046 64 68 64.8954 68 66C68 67.1046 67.1046 68 66 68H36C34.8954 68 34 67.1046 34 66ZM34 76C34 74.8954 34.8954 74 36 74H46C47.1046 74 48 74.8954 48 76C48 77.1046 47.1046 78 46 78H36C34.8954 78 34 77.1046 34 76Z" fill="url(#paint2_linear_1314_6741)"/>
</g>
<defs>
<filter id="filter0_b_1314_6741" x="-4" y="16" width="110" height="116" filterUnits="userSpaceOnUse" color-interpolation-filters="sRGB">
<feFlood flood-opacity="0" result="BackgroundImageFix"/>
<feGaussianBlur in="BackgroundImageFix" stdDeviation="12"/>
<feComposite in2="SourceAlpha" operator="in" result="effect1_backgroundBlur_1314_6741"/>
<feBlend mode="normal" in="SourceGraphic" in2="effect1_backgroundBlur_1314_6741" result="shape"/>
</filter>
<filter id="filter1_bdii_1314_6741" x="20" y="40" width="63" height="53" filterUnits="userSpaceOnUse" color-interpolation-filters="sRGB">
<feFlood flood-opacity="0" result="BackgroundImageFix"/>
<feGaussianBlur in="BackgroundImageFix" stdDeviation="7"/>
<feComposite in2="SourceAlpha" operator="in" result="effect1_backgroundBlur_1314_6741"/>
<feColorMatrix in="SourceAlpha" type="matrix" values="0 0 0 0 0 0 0 0 0 0 0 0 0 0 0 0 0 0 127 0" result="hardAlpha"/>
<feOffset dx="5" dy="5"/>
<feGaussianBlur stdDeviation="5"/>
<feColorMatrix type="matrix" values="0 0 0 0 0.164706 0 0 0 0 0.580392 0 0 0 0 0.756863 0 0 0 0.32 0"/>
<feBlend mode="normal" in2="effect1_backgroundBlur_1314_6741" result="effect2_dropShadow_1314_6741"/>
<feBlend mode="normal" in="SourceGraphic" in2="effect2_dropShadow_1314_6741" result="shape"/>
<feColorMatrix in="SourceAlpha" type="matrix" values="0 0 0 0 0 0 0 0 0 0 0 0 0 0 0 0 0 0 127 0" result="hardAlpha"/>
<feOffset dy="0.2"/>
<feComposite in2="hardAlpha" operator="arithmetic" k2="-1" k3="1"/>
<feColorMatrix type="matrix" values="0 0 0 0 1 0 0 0 0 1 0 0 0 0 1 0 0 0 0.25 0"/>
<feBlend mode="normal" in2="shape" result="effect3_innerShadow_1314_6741"/>
<feColorMatrix in="SourceAlpha" type="matrix" values="0 0 0 0 0 0 0 0 0 0 0 0 0 0 0 0 0 0 127 0" result="hardAlpha"/>
<feOffset dy="-0.2"/>
<feComposite in2="hardAlpha" operator="arithmetic" k2="-1" k3="1"/>
<feColorMatrix type="matrix" values="0 0 0 0 0.270588 0 0 0 0 0.705882 0 0 0 0 0.984314 0 0 0 0.43 0"/>
<feBlend mode="normal" in2="effect3_innerShadow_1314_6741" result="effect4_innerShadow_1314_6741"/>
</filter>
<linearGradient id="paint0_linear_1314_6741" x1="108" y1="20" x2="5.27894" y2="74.955" gradientUnits="userSpaceOnUse">
<stop stop-color="#39C2FD"/>
<stop offset="0.0666667" stop-color="#39C2FD"/>
<stop offset="0.133333" stop-color="#39C0FD"/>
<stop offset="0.2" stop-color="#3ABEFD"/>
<stop offset="0.266667" stop-color="#3BBBFD"/>
<stop offset="0.333333" stop-color="#3CB7FD"/>
<stop offset="0.4" stop-color="#3EB2FE"/>
<stop offset="0.466667" stop-color="#3FACFE"/>
<stop offset="0.533333" stop-color="#41A7FE"/>
<stop offset="0.6" stop-color="#42A1FE"/>
<stop offset="0.666667" stop-color="#449CFF"/>
<stop offset="0.733333" stop-color="#4598FF"/>
<stop offset="0.8" stop-color="#4695FF"/>
<stop offset="0.866667" stop-color="#4792FF"/>
<stop offset="0.933333" stop-color="#4791FF"/>
<stop offset="1" stop-color="#4791FF"/>
</linearGradient>
<linearGradient id="paint1_linear_1314_6741" x1="23.3125" y1="44.923" x2="76.4559" y2="104.951" gradientUnits="userSpaceOnUse">
<stop stop-color="white" stop-opacity="0.25"/>
<stop offset="1" stop-color="white" stop-opacity="0"/>
</linearGradient>
<linearGradient id="paint2_linear_1314_6741" x1="56.1" y1="40" x2="43.5038" y2="122.413" gradientUnits="userSpaceOnUse">
<stop stop-color="white" stop-opacity="0.88"/>
<stop offset="1" stop-color="white" stop-opacity="0"/>
</linearGradient>
</defs>
</svg>
