<svg width="128" height="128" viewBox="0 0 128 128" fill="none" xmlns="http://www.w3.org/2000/svg">
<circle cx="76" cy="52" r="32" fill="url(#paint0_linear_1314_6731)"/>
<g filter="url(#filter0_b_1314_6731)">
<path d="M20 56C20 50.3995 20 47.5992 21.0899 45.4601C22.0487 43.5785 23.5785 42.0487 25.4601 41.0899C27.5992 40 30.3995 40 36 40H52C57.6005 40 60.4008 40 62.5399 41.0899C64.4215 42.0487 65.9513 43.5785 66.9101 45.4601C68 47.5992 68 50.3995 68 56V97.2547C68 100.796 68 102.566 67.2551 103.609C66.6051 104.519 65.6037 105.116 64.4937 105.254C63.2218 105.412 61.6652 104.569 58.5518 102.882L50.0964 98.3022C47.8687 97.0956 46.7549 96.4922 45.5781 96.2554C44.5365 96.0458 43.4635 96.0458 42.4219 96.2554C41.2451 96.4922 40.1313 97.0956 37.9036 98.3022L29.4482 102.882C26.3348 104.569 24.7782 105.412 23.5063 105.254C22.3963 105.116 21.3949 104.519 20.7449 103.609C20 102.566 20 100.796 20 97.2547V56Z" fill="#FF9D8F" fill-opacity="0.32"/>
<path d="M20.25 56C20.25 53.1956 20.2502 51.1074 20.3854 49.4524C20.5204 47.8003 20.7887 46.602 21.3127 45.5736C22.2475 43.739 23.739 42.2475 25.5736 41.3127C26.602 40.7887 27.8003 40.5204 29.4524 40.3854C31.1074 40.2502 33.1956 40.25 36 40.25H52C54.8044 40.25 56.8926 40.2502 58.5476 40.3854C60.1997 40.5204 61.398 40.7887 62.4264 41.3127C64.261 42.2475 65.7525 43.739 66.6873 45.5736C67.2113 46.602 67.4796 47.8003 67.6146 49.4524C67.7498 51.1074 67.75 53.1956 67.75 56V97.2547C67.75 99.03 67.7497 100.344 67.6579 101.346C67.566 102.348 67.3849 102.997 67.0517 103.464C66.4423 104.317 65.5034 104.876 64.4629 105.006C63.8939 105.076 63.2369 104.926 62.3118 104.53C61.3875 104.134 60.2319 103.508 58.6709 102.662L50.2155 98.0824L50.169 98.0572C47.9854 96.8744 46.841 96.2545 45.6275 96.0103C44.5532 95.7942 43.4468 95.7942 42.3725 96.0103C41.159 96.2545 40.0146 96.8744 37.831 98.0572L37.7845 98.0824L29.3291 102.662C27.7681 103.508 26.6125 104.134 25.6882 104.53C24.7631 104.926 24.1061 105.076 23.5371 105.006C22.4966 104.876 21.5577 104.317 20.9483 103.464L20.7449 103.609L20.9483 103.464C20.6151 102.997 20.434 102.348 20.3421 101.346C20.2503 100.344 20.25 99.03 20.25 97.2547V56Z" stroke="url(#paint1_linear_1314_6731)" stroke-width="0.5"/>
</g>
<defs>
<filter id="filter0_b_1314_6731" x="-4" y="16" width="96" height="113.271" filterUnits="userSpaceOnUse" color-interpolation-filters="sRGB">
<feFlood flood-opacity="0" result="BackgroundImageFix"/>
<feGaussianBlur in="BackgroundImageFix" stdDeviation="12"/>
<feComposite in2="SourceAlpha" operator="in" result="effect1_backgroundBlur_1314_6731"/>
<feBlend mode="normal" in="SourceGraphic" in2="effect1_backgroundBlur_1314_6731" result="shape"/>
</filter>
<linearGradient id="paint0_linear_1314_6731" x1="108" y1="20" x2="14.5005" y2="40.3397" gradientUnits="userSpaceOnUse">
<stop stop-color="#FF9D8F"/>
<stop offset="0.0666667" stop-color="#FF9C8F"/>
<stop offset="0.133333" stop-color="#FF9B8C"/>
<stop offset="0.2" stop-color="#FE9887"/>
<stop offset="0.266667" stop-color="#FD9381"/>
<stop offset="0.333333" stop-color="#FC8E78"/>
<stop offset="0.4" stop-color="#FB876F"/>
<stop offset="0.466667" stop-color="#F98064"/>
<stop offset="0.533333" stop-color="#F87958"/>
<stop offset="0.6" stop-color="#F6714D"/>
<stop offset="0.666667" stop-color="#F56B43"/>
<stop offset="0.733333" stop-color="#F4653B"/>
<stop offset="0.8" stop-color="#F36134"/>
<stop offset="0.866667" stop-color="#F35E30"/>
<stop offset="0.933333" stop-color="#F25C2D"/>
<stop offset="1" stop-color="#F25C2C"/>
</linearGradient>
<linearGradient id="paint1_linear_1314_6731" x1="22.5645" y1="44.923" x2="75.6248" y2="91.3236" gradientUnits="userSpaceOnUse">
<stop stop-color="white" stop-opacity="0.25"/>
<stop offset="1" stop-color="white" stop-opacity="0"/>
</linearGradient>
</defs>
</svg>
